<?xml version="1.0" standalone="yes"?>
<svg xmlns="http://www.w3.org/2000/svg" width="215" height="55">
<path style="fill:#e6e2db; stroke:none;" d="M0 0L0 55L215 55L215 0L0 0z"/>
<path style="fill:#2b0a16; stroke:none;" d="M21 22L21 37L22 37L22 24L29 37L32 29L31 29L29 34L24 22L21 22z"/>
<path style="fill:#d39950; stroke:none;" d="M33 22L34 23L33 22z"/>
<path style="fill:#2b0a16; stroke:none;" d="M34 22L32 28L33 28L34 24L35 24L35 37L36 37L36 22L34 22z"/>
<path style="fill:#0f4b8f; stroke:none;" d="M36 22L36 37L37 37L36 22z"/>
<path style="fill:#8f4305; stroke:none;" d="M44 22L45 23L44 22z"/>
<path style="fill:#2b0a16; stroke:none;" d="M45.0579 22.8364C38.4223 24.9941 40.3754 38.602 47.9568 36.1991C55.47 33.8177 53.292 20.1589 45.0579 22.8364z"/>
<path style="fill:#0f4b8f; stroke:none;" d="M48.6667 22.3333L49.3333 22.6667L48.6667 22.3333z"/>
<path style="fill:#2b0a16; stroke:none;" d="M56 22L56 37C69.3922 36.6762 69.3922 22.3237 56 22z"/>
<path style="fill:#0f4b8f; stroke:none;" d="M62 22L63 23L62 22z"/>
<path style="fill:#d39950; stroke:none;" d="M63 22L64 23L63 22z"/>
<path style="fill:#2b0a16; stroke:none;" d="M70 22L70 37L78 37L78 36C73.6057 35.6648 71.7087 34.4442 71 30L77 30L77 29C71.1917 28.071 71.1917 23.929 77 23L70 22z"/>
<path style="fill:#0f4b8f; stroke:none;" d="M77.3333 22.6667L77.6667 23.3333L77.3333 22.6667z"/>
<path style="fill:#2b0a16; stroke:none;" d="M81 22L81 37L82 37L83 30L89 37L90 37L87 29C91.8547 24.669 84.8452 22.1252 81 22z"/>
<path style="fill:#0f4b8f; stroke:none;" d="M87 22L88 23L87 22z"/>
<path style="fill:#2b0a16; stroke:none;" d="M93 22L93 37L94 37L94 24L95 24L102 37L103 37L104 22L102 22L103 34L93 22z"/>
<path style="fill:#0f4b8f; stroke:none;" d="M95 22L96 23L95 22z"/>
<path style="fill:#2b0a16; stroke:none;" d="M113 22L113 37L120 37L120 36C111.878 34.7048 115.394 27.7043 113 22z"/>
<path style="fill:#0f4b8f; stroke:none;" d="M114 22L114 35L115 35L114 22z"/>
<path style="fill:#2b0a16; stroke:none;" d="M123 22L123 37L124 37L123 22z"/>
<path style="fill:#0f4b8f; stroke:none;" d="M124 22L124 37L125 37L124 22z"/>
<path style="fill:#8f4305; stroke:none;" d="M127 22L128 23L127 22z"/>
<path style="fill:#2b0a16; stroke:none;" d="M128 22L133 37L134 37L139 22L138 22L134 35L133 35L128 22z"/>
<path style="fill:#0f4b8f; stroke:none;" d="M129.333 22.6667L129.667 23.3333L129.333 22.6667z"/>
<path style="fill:#d39950; stroke:none;" d="M137 22L138 23L137 22z"/>
<path style="fill:#0f4b8f; stroke:none;" d="M139 22L140 23L139 22z"/>
<path style="fill:#2b0a16; stroke:none;" d="M142 22L142 37L143 37L142 22z"/>
<path style="fill:#0f4b8f; stroke:none;" d="M143 22L143 37L144 37L143 22z"/>
<path style="fill:#2b0a16; stroke:none;" d="M148 22L148 37L149 37L149 24L150 24L157 37L158 37L159 22L157 22L158 34L148 22z"/>
<path style="fill:#0f4b8f; stroke:none;" d="M150 22L151 23L150 22z"/>
<path style="fill:#d39950; stroke:none;" d="M166 22L167 23L166 22z"/>
<path style="fill:#2b0a16; stroke:none;" d="M173 29L169 29L169 30L172 30C170.108 41.7516 156.926 22.8051 173 24C167.625 19.9968 160.648 25.4924 162.934 31.956C165.936 40.4448 172.919 35.8037 173 29z"/>
<path style="fill:#0f4b8f; stroke:none;" d="M172 22L173 23L172 22M24 23L25 24L24 23z"/>
<path style="fill:#8f4305; stroke:none;" d="M33 23L34 24L33 23M42 23L43 24L42 23z"/>
<path style="fill:#0f4b8f; stroke:none;" d="M45 23L46 24L45 23z"/>
<path style="fill:#8f4305; stroke:none;" d="M46.6667 23.3333L47.3333 23.6667L46.6667 23.3333M58 23L58 24L61 24L58 23z"/>
<path style="fill:#0f4b8f; stroke:none;" d="M64 23L65 24L64 23z"/>
<path style="fill:#8f4305; stroke:none;" d="M72 23L72 24L77 24L72 23M83 23L83 24L86 24L83 23z"/>
<path style="fill:#0f4b8f; stroke:none;" d="M88 23L89 24L88 23M96 23L97 24L96 23z"/>
<path style="fill:#d39950; stroke:none;" d="M127 23L128 24L127 23z"/>
<path style="fill:#8f4305; stroke:none;" d="M137 23L138 24L137 23z"/>
<path style="fill:#d39950; stroke:none;" d="M139 23L140 24L139 23z"/>
<path style="fill:#0f4b8f; stroke:none;" d="M151 23L152 24L151 23z"/>
<path style="fill:#d39950; stroke:none;" d="M164 23L165 24L164 23z"/>
<path style="fill:#0f4b8f; stroke:none;" d="M168 23L169 24L168 23z"/>
<path style="fill:#8f4305; stroke:none;" d="M169.667 23.3333L170.333 23.6667L169.667 23.3333z"/>
<path style="fill:#0f4b8f; stroke:none;" d="M173 23L174 24L173 23M22 24L22 37L23 37L22 24z"/>
<path style="fill:#8f4305; stroke:none;" d="M23 24L24 25L23 24z"/>
<path style="fill:#d39950; stroke:none;" d="M32 24L33 25L32 24z"/>
<path style="fill:#0f4b8f; stroke:none;" d="M34 24L35 25L34 24z"/>
<path style="fill:#d39950; stroke:none;" d="M41 24L42 25L41 24z"/>
<path style="fill:#0f4b8f; stroke:none;" d="M43 24L44 25L43 24z"/>
<path style="fill:#e6e2db; stroke:none;" d="M44.5108 25.0471C40.3138 27.8621 43.4079 37.2854 48.571 33.9529C52.9894 31.1012 49.5857 21.6432 44.5108 25.0471z"/>
<path style="fill:#d39950; stroke:none;" d="M49 24L50 25L49 24z"/>
<path style="fill:#0f4b8f; stroke:none;" d="M57 24L57 35L58 35L57 24z"/>
<path style="fill:#e6e2db; stroke:none;" d="M58 24L58 35C66.3722 34.3495 66.3722 24.6505 58 24z"/>
<path style="fill:#8f4305; stroke:none;" d="M63 24L64 25L63 24z"/>
<path style="fill:#0f4b8f; stroke:none;" d="M65 24L66 25L65 24M71 24L71 28L72 28L71 24M82 24L82 29L83 29L82 24z"/>
<path style="fill:#e6e2db; stroke:none;" d="M83 24L83 29L87 24L83 24z"/>
<path style="fill:#8f4305; stroke:none;" d="M87 24L88 25L87 24z"/>
<path style="fill:#0f4b8f; stroke:none;" d="M89 24L89 28L90 28L89 24M94 24L94 37L95 37L94 24M149 24L149 37L150 37L149 24z"/>
<path style="fill:#d39950; stroke:none;" d="M163 24L164 25L163 24M166 24L167 25L166 24M173 24L174 25L173 24M23.3333 25.6667L23.6667 26.3333L23.3333 25.6667z"/>
<path style="fill:#0f4b8f; stroke:none;" d="M25.3333 25.6667L25.6667 26.3333L25.3333 25.6667z"/>
<path style="fill:#8f4305; stroke:none;" d="M32 25L33 26L32 25z"/>
<path style="fill:#d39950; stroke:none;" d="M34 25L34 37L35 37L34 25M40.3333 25.6667L40.6667 26.3333L40.3333 25.6667z"/>
<path style="fill:#8f4305; stroke:none;" d="M50 25L51 26L50 25z"/>
<path style="fill:#0f4b8f; stroke:none;" d="M52.3333 25.6667L52.6667 26.3333L52.3333 25.6667z"/>
<path style="fill:#d39950; stroke:none;" d="M66 25L67 26L66 25M87 25L87 28L88 28L87 25z"/>
<path style="fill:#8f4305; stroke:none;" d="M95 25L96 26L95 25z"/>
<path style="fill:#0f4b8f; stroke:none;" d="M97 25L98 26L97 25z"/>
<path style="fill:#d39950; stroke:none;" d="M128.333 25.6667L128.667 26.3333L128.333 25.6667z"/>
<path style="fill:#0f4b8f; stroke:none;" d="M130.333 25.6667L130.667 26.3333L130.333 25.6667z"/>
<path style="fill:#d39950; stroke:none;" d="M136 25L137 26L136 25z"/>
<path style="fill:#0f4b8f; stroke:none;" d="M138 25L139 26L138 25z"/>
<path style="fill:#8f4305; stroke:none;" d="M150 25L151 26L150 25z"/>
<path style="fill:#0f4b8f; stroke:none;" d="M152 25L153 26L152 25z"/>
<path style="fill:#d39950; stroke:none;" d="M31.3333 26.6667L31.6667 27.3333L31.3333 26.6667z"/>
<path style="fill:#0f4b8f; stroke:none;" d="M33 26L34 27L33 26M42 26L43 27L42 26z"/>
<path style="fill:#d39950; stroke:none;" d="M50 26L51 27L50 26M64.3333 26.6667L64.6667 27.3333L64.3333 26.6667z"/>
<path style="fill:#0f4b8f; stroke:none;" d="M66 26L67 27L66 26z"/>
<path style="fill:#d39950; stroke:none;" d="M95 26L96 27L95 26z"/>
<path style="fill:#8f4305; stroke:none;" d="M136 26L137 27L136 26z"/>
<path style="fill:#d39950; stroke:none;" d="M138 26L139 27L138 26M150 26L151 27L150 26M162 26L163 27L162 26z"/>
<path style="fill:#0f4b8f; stroke:none;" d="M164 26L165 27L164 26z"/>
<path style="fill:#8f4305; stroke:none;" d="M24 27L25 28L24 27M40 27L40 32L41 32L40 27z"/>
<path style="fill:#d39950; stroke:none;" d="M42 27L43 28L42 27M96 27L97 28L96 27z"/>
<path style="fill:#0f4b8f; stroke:none;" d="M98 27L99 28L98 27z"/>
<path style="fill:#8f4305; stroke:none;" d="M129 27L130 28L129 27z"/>
<path style="fill:#d39950; stroke:none;" d="M151 27L152 28L151 27z"/>
<path style="fill:#0f4b8f; stroke:none;" d="M153 27L154 28L153 27z"/>
<path style="fill:#8f4305; stroke:none;" d="M162 27L163 28L162 27z"/>
<path style="fill:#d39950; stroke:none;" d="M164 27L165 28L164 27M24 28L25 29L24 28z"/>
<path style="fill:#0f4b8f; stroke:none;" d="M26 28L27 29L26 28z"/>
<path style="fill:#8f4305; stroke:none;" d="M31 28L32 29L31 28z"/>
<path style="fill:#0f4b8f; stroke:none;" d="M32.3333 28.6667L32.6667 29.3333L32.3333 28.6667z"/>
<path style="fill:#8f4305; stroke:none;" d="M72 28L72 29L76 29L72 28z"/>
<path style="fill:#0f4b8f; stroke:none;" d="M76 28L77 29L76 28z"/>
<path style="fill:#d39950; stroke:none;" d="M86 28L87 29L86 28M129.333 28.6667L129.667 29.3333L129.333 28.6667z"/>
<path style="fill:#0f4b8f; stroke:none;" d="M131.333 28.6667L131.667 29.3333L131.333 28.6667z"/>
<path style="fill:#d39950; stroke:none;" d="M135 28L136 29L135 28z"/>
<path style="fill:#0f4b8f; stroke:none;" d="M137 28L138 29L137 28z"/>
<path style="fill:#d39950; stroke:none;" d="M30 29L31 30L30 29z"/>
<path style="fill:#0f4b8f; stroke:none;" d="M87.3333 29.6667L87.6667 30.3333L87.3333 29.6667z"/>
<path style="fill:#d39950; stroke:none;" d="M97 29L98 30L97 29z"/>
<path style="fill:#0f4b8f; stroke:none;" d="M99 29L100 30L99 29z"/>
<path style="fill:#8f4305; stroke:none;" d="M135 29L136 30L135 29z"/>
<path style="fill:#d39950; stroke:none;" d="M152 29L153 30L152 29z"/>
<path style="fill:#0f4b8f; stroke:none;" d="M154 29L155 30L154 29z"/>
<path style="fill:#8f4305; stroke:none;" d="M168 29L168 30L172 31L172 30L168 29z"/>
<path style="fill:#0f4b8f; stroke:none;" d="M173 29L173 36L174 36L173 29z"/>
<path style="fill:#d39950; stroke:none;" d="M25.3333 30.6667L25.6667 31.3333L25.3333 30.6667M27 30L28 31L27 30z"/>
<path style="fill:#8f4305; stroke:none;" d="M30 30L31 31L30 30z"/>
<path style="fill:#0f4b8f; stroke:none;" d="M71 30L71 35L72 35L71 30z"/>
<path style="fill:#8f4305; stroke:none;" d="M83.6667 30.3333L84.3333 30.6667L83.6667 30.3333M130 30L131 31L130 30z"/>
<path style="fill:#0f4b8f; stroke:none;" d="M136.333 30.6667L136.667 31.3333L136.333 30.6667z"/>
<path style="fill:#d39950; stroke:none;" d="M168 30L169 31L168 30z"/>
<path style="fill:#0f4b8f; stroke:none;" d="M27 31L28 32L27 31z"/>
<path style="fill:#d39950; stroke:none;" d="M29.3333 31.6667L29.6667 32.3333L29.3333 31.6667z"/>
<path style="fill:#0f4b8f; stroke:none;" d="M31 31L32 32L31 31z"/>
<path style="fill:#d39950; stroke:none;" d="M42 31L43 32L42 31M64.3333 31.6667L64.6667 32.3333L64.3333 31.6667z"/>
<path style="fill:#0f4b8f; stroke:none;" d="M82 31L82 37L83 37L82 31z"/>
<path style="fill:#8f4305; stroke:none;" d="M86 31L87 32L86 31z"/>
<path style="fill:#0f4b8f; stroke:none;" d="M88 31L89 32L88 31z"/>
<path style="fill:#d39950; stroke:none;" d="M98 31L99 32L98 31z"/>
<path style="fill:#0f4b8f; stroke:none;" d="M100 31L101 32L100 31z"/>
<path style="fill:#d39950; stroke:none;" d="M130.333 31.6667L130.667 32.3333L130.333 31.6667z"/>
<path style="fill:#0f4b8f; stroke:none;" d="M132.333 31.6667L132.667 32.3333L132.333 31.6667z"/>
<path style="fill:#d39950; stroke:none;" d="M134 31L135 32L134 31M153 31L154 32L153 31z"/>
<path style="fill:#0f4b8f; stroke:none;" d="M155 31L156 32L155 31z"/>
<path style="fill:#8f4305; stroke:none;" d="M162 31L163 32L162 31z"/>
<path style="fill:#d39950; stroke:none;" d="M164 31L165 32L164 31z"/>
<path style="fill:#8f4305; stroke:none;" d="M26 32L27 33L26 32z"/>
<path style="fill:#d39950; stroke:none;" d="M31 32L32 33L31 32M40.3333 32.6667L40.6667 33.3333L40.3333 32.6667z"/>
<path style="fill:#0f4b8f; stroke:none;" d="M42 32L43 33L42 32z"/>
<path style="fill:#d39950; stroke:none;" d="M50 32L51 33L50 32z"/>
<path style="fill:#0f4b8f; stroke:none;" d="M52 32L53 33L52 32M66 32L67 33L66 32z"/>
<path style="fill:#d39950; stroke:none;" d="M86 32L87 33L86 32z"/>
<path style="fill:#8f4305; stroke:none;" d="M99 32L100 33L99 32M102.333 32.6667L102.667 33.3333L102.333 32.6667M134 32L135 33L134 32M154 32L155 33L154 32M157.333 32.6667L157.667 33.3333L157.333 32.6667z"/>
<path style="fill:#d39950; stroke:none;" d="M162 32L163 33L162 32z"/>
<path style="fill:#0f4b8f; stroke:none;" d="M164 32L165 33L164 32z"/>
<path style="fill:#d39950; stroke:none;" d="M26 33L27 34L26 33z"/>
<path style="fill:#0f4b8f; stroke:none;" d="M28 33L29 34L28 33z"/>
<path style="fill:#8f4305; stroke:none;" d="M50 33L51 34L50 33z"/>
<path style="fill:#d39950; stroke:none;" d="M52 33L53 34L52 33z"/>
<path style="fill:#8f4305; stroke:none;" d="M64 33L65 34L64 33z"/>
<path style="fill:#d39950; stroke:none;" d="M66 33L67 34L66 33z"/>
<path style="fill:#8f4305; stroke:none;" d="M87 33L88 34L87 33z"/>
<path style="fill:#d39950; stroke:none;" d="M89 33L90 34L89 33M99 33L100 34L99 33z"/>
<path style="fill:#0f4b8f; stroke:none;" d="M101 33L102 34L101 33z"/>
<path style="fill:#8f4305; stroke:none;" d="M131 33L132 34L131 33z"/>
<path style="fill:#d39950; stroke:none;" d="M133 33L134 34L133 33z"/>
<path style="fill:#0f4b8f; stroke:none;" d="M135.333 33.6667L135.667 34.3333L135.333 33.6667z"/>
<path style="fill:#d39950; stroke:none;" d="M154 33L155 34L154 33z"/>
<path style="fill:#0f4b8f; stroke:none;" d="M156 33L157 34L156 33M30 34L31 35L30 34z"/>
<path style="fill:#8f4305; stroke:none;" d="M41 34L42 35L41 34z"/>
<path style="fill:#0f4b8f; stroke:none;" d="M43 34L44 35L43 34z"/>
<path style="fill:#8f4305; stroke:none;" d="M49 34L50 35L49 34z"/>
<path style="fill:#0f4b8f; stroke:none;" d="M51 34L52 35L51 34z"/>
<path style="fill:#8f4305; stroke:none;" d="M63 34L64 35L63 34z"/>
<path style="fill:#0f4b8f; stroke:none;" d="M65 34L66 35L65 34z"/>
<path style="fill:#d39950; stroke:none;" d="M87 34L88 35L87 34z"/>
<path style="fill:#0f4b8f; stroke:none;" d="M89 34L90 35L89 34z"/>
<path style="fill:#8f4305; stroke:none;" d="M100 34L101 35L100 34z"/>
<path style="fill:#d39950; stroke:none;" d="M131.333 34.6667L131.667 35.3333L131.333 34.6667z"/>
<path style="fill:#0f4b8f; stroke:none;" d="M133 34L134 35L133 34z"/>
<path style="fill:#8f4305; stroke:none;" d="M155 34L156 35L155 34z"/>
<path style="fill:#d39950; stroke:none;" d="M163 34L164 35L163 34M166 34L167 35L166 34z"/>
<path style="fill:#8f4305; stroke:none;" d="M27 35L28 36L27 35M42 35L43 36L42 35z"/>
<path style="fill:#0f4b8f; stroke:none;" d="M45 35L46 36L45 35z"/>
<path style="fill:#8f4305; stroke:none;" d="M46.6667 35.3333L47.3333 35.6667L46.6667 35.3333z"/>
<path style="fill:#0f4b8f; stroke:none;" d="M50 35L51 36L50 35z"/>
<path style="fill:#8f4305; stroke:none;" d="M58 35L58 36L61 36L58 35z"/>
<path style="fill:#0f4b8f; stroke:none;" d="M64 35L65 36L64 35z"/>
<path style="fill:#8f4305; stroke:none;" d="M72 35L72 36L77 36L72 35z"/>
<path style="fill:#0f4b8f; stroke:none;" d="M77 35L78 36L77 35z"/>
<path style="fill:#8f4305; stroke:none;" d="M88 35L89 36L88 35z"/>
<path style="fill:#d39950; stroke:none;" d="M100 35L101 36L100 35z"/>
<path style="fill:#8f4305; stroke:none;" d="M115 35L115 36L120 36L115 35z"/>
<path style="fill:#d39950; stroke:none;" d="M155 35L156 36L155 35M164 35L165 36L164 35z"/>
<path style="fill:#0f4b8f; stroke:none;" d="M168 35L169 36L168 35z"/>
<path style="fill:#8f4305; stroke:none;" d="M169.667 35.3333L170.333 35.6667L169.667 35.3333z"/>
<path style="fill:#d39950; stroke:none;" d="M27 36L28 37L27 36z"/>
<path style="fill:#0f4b8f; stroke:none;" d="M29 36L30 37L29 36z"/>
<path style="fill:#d39950; stroke:none;" d="M43 36L44 37L43 36z"/>
<path style="fill:#0f4b8f; stroke:none;" d="M48 36L49 37L48 36z"/>
<path style="fill:#d39950; stroke:none;" d="M49 36L50 37L49 36z"/>
<path style="fill:#0f4b8f; stroke:none;" d="M62 36L63 37L62 36z"/>
<path style="fill:#d39950; stroke:none;" d="M88 36L89 37L88 36z"/>
<path style="fill:#0f4b8f; stroke:none;" d="M90 36L91 37L90 36z"/>
<path style="fill:#8f4305; stroke:none;" d="M101 36L102 37L101 36z"/>
<path style="fill:#0f4b8f; stroke:none;" d="M103 36L104 37L103 36M120 36L121 37L120 36z"/>
<path style="fill:#8f4305; stroke:none;" d="M132 36L133 37L132 36z"/>
<path style="fill:#0f4b8f; stroke:none;" d="M134 36L135 37L134 36z"/>
<path style="fill:#8f4305; stroke:none;" d="M156 36L157 37L156 36z"/>
<path style="fill:#0f4b8f; stroke:none;" d="M158 36L159 37L158 36z"/>
<path style="fill:#8f4305; stroke:none;" d="M166 36L167 37L166 36z"/>
<path style="fill:#0f4b8f; stroke:none;" d="M171 36L172 37L171 36z"/>
<path style="fill:#d39950; stroke:none;" d="M172 36L173 37L172 36z"/>
</svg>
